<svg width="188" height="50" viewBox="0 0 188 50" fill="none" xmlns="http://www.w3.org/2000/svg">
<path d="M17.36 11.667C19.76 11.667 20.267 11.694 21.493 11.747C22.906 11.814 23.88 12.04 24.72 12.374C25.6 12.707 26.347 13.174 27.08 13.907C27.827 14.64 28.28 15.387 28.627 16.267C28.96 17.107 29.174 18.08 29.24 19.507C29.307 20.774 29.32 21.267 29.32 23.934V26.067C29.32 28.734 29.307 29.227 29.24 30.494C29.217 31.659 28.994 32.764 28.604 33.788L28.626 33.721C28.279 34.601 27.826 35.348 27.093 36.081C26.346 36.828 25.6 37.281 24.72 37.628C23.88 37.961 22.907 38.175 21.493 38.241C20.226 38.308 19.72 38.321 17.053 38.321H14.933C12.266 38.321 11.773 38.308 10.493 38.241C9.32802 38.218 8.22302 37.995 7.19902 37.605L7.26602 37.627C6.34302 37.274 5.55602 36.753 4.90702 36.094L4.90602 36.093C4.24002 35.441 3.71402 34.649 3.37402 33.764L3.35902 33.719C2.99202 32.763 2.76902 31.657 2.74602 30.502V30.492C2.69302 29.45 2.66302 28.229 2.66302 27.002C2.66302 26.776 2.66402 26.55 2.66602 26.325V26.359V23.626C2.66602 21.226 2.69302 20.719 2.74602 19.493C2.81302 18.08 3.03902 17.106 3.35902 16.266C3.70602 15.386 4.15902 14.639 4.90602 13.906C5.55102 13.239 6.34002 12.716 7.22302 12.387L7.26602 12.373C8.22102 12.002 9.32603 11.774 10.481 11.747H10.493C11.72 11.694 12.226 11.667 14.626 11.667H17.36ZM17.387 14.067H14.6C12.293 14.067 11.8 14.094 10.6 14.147C9.30702 14.2 8.60003 14.414 8.13303 14.6C7.50603 14.84 7.06602 15.133 6.60002 15.6C6.13402 16.067 5.84002 16.507 5.60002 17.133C5.42702 17.6 5.20002 18.306 5.14702 19.613C5.09402 20.813 5.06702 21.293 5.06702 23.613V26.386C5.06702 28.706 5.09402 29.186 5.14702 30.386C5.20002 31.679 5.41402 32.386 5.60002 32.853C5.84002 33.48 6.13302 33.92 6.60002 34.386C7.06702 34.852 7.50703 35.146 8.13303 35.386C8.60003 35.573 9.30602 35.786 10.613 35.839C11.906 35.906 12.373 35.919 15.253 35.919H16.733C19.626 35.919 20.08 35.906 21.386 35.839C22.679 35.786 23.386 35.572 23.853 35.386C24.48 35.146 24.92 34.853 25.386 34.386C25.852 33.919 26.146 33.479 26.386 32.853C26.573 32.386 26.786 31.68 26.839 30.386C26.906 29.079 26.919 28.626 26.919 25.733V24.266C26.919 21.373 26.906 20.906 26.839 19.599C26.786 18.306 26.572 17.599 26.386 17.132C26.16 16.531 25.819 16.018 25.387 15.6L25.386 15.599C24.966 15.166 24.454 14.825 23.881 14.608L23.853 14.599C23.121 14.323 22.275 14.158 21.391 14.146H21.386C20.358 14.094 19.155 14.064 17.944 14.064C17.748 14.064 17.552 14.065 17.356 14.066H17.386L17.387 14.067ZM16 18.147C19.781 18.147 22.847 21.212 22.847 24.994C22.847 28.776 19.782 31.841 16 31.841C12.219 31.841 9.15302 28.776 9.15302 24.994C9.15302 21.212 12.218 18.147 16 18.147ZM16 20.547C13.544 20.547 11.553 22.538 11.553 24.994C11.553 27.45 13.544 29.441 16 29.441C18.456 29.441 20.447 27.45 20.447 24.994C20.447 22.538 18.456 20.547 16 20.547ZM23.107 16.28C23.991 16.28 24.707 16.996 24.707 17.88C24.707 18.764 23.991 19.48 23.107 19.48C22.223 19.48 21.507 18.764 21.507 17.88C21.507 16.996 22.223 16.28 23.107 16.28Z" fill="black"/>
<path d="M65.04 38.333L65 26.666H60V21.666H65V18.333C65 13.84 67.787 11.666 71.8 11.666C73.72 11.666 75.373 11.799 75.853 11.866V16.573H73.066C70.893 16.573 70.466 17.613 70.466 19.133V21.666H76.666L74.999 26.666H70.466V38.333H65.039H65.04Z" fill="black"/>
<path d="M133.333 16.84C132.333 17.333 131.333 17.507 130.16 17.667C131.333 17 132.16 16 132.493 14.667C131.488 15.275 130.317 15.738 129.07 15.989L129 16.001C127.969 14.987 126.56 14.355 125.004 14.334H125C122.16 14.334 119.667 16.841 119.667 19.841C119.667 20.334 119.667 20.668 119.84 21.001C115.262 20.823 111.221 18.664 108.529 15.362L108.507 15.334C108.082 16.06 107.831 16.932 107.831 17.863C107.831 17.972 107.834 18.081 107.841 18.189L107.84 18.174C107.874 20.052 108.849 21.695 110.313 22.655L110.334 22.668C109.494 22.668 108.667 22.335 107.827 22.001C107.827 24.668 109.667 26.841 112.16 27.334C111.667 27.507 111.16 27.507 110.667 27.507C110.334 27.507 110 27.507 109.667 27.334C110.334 29.507 112.334 31.174 114.84 31.174C113.04 32.629 110.724 33.509 108.203 33.509C108.132 33.509 108.061 33.508 107.99 33.507H108.001H106.668C109.033 35.016 111.904 35.936 114.984 36H115.001C125.001 36 130.508 27.667 130.508 20.493V19.826C131.655 19.036 132.601 18.039 133.311 16.882L133.335 16.84H133.333Z" fill="black"/>
<path d="M172 11.667C164.657 11.694 158.714 17.653 158.714 25C158.714 30.599 162.166 35.393 167.057 37.368L167.146 37.4C167.013 36.347 166.919 34.733 167.186 33.573L168.746 26.946C168.746 26.946 168.346 26.146 168.346 24.973C168.346 23.12 169.426 21.746 170.773 21.746C171.906 21.746 172.466 22.599 172.466 23.613C172.466 24.76 171.733 26.466 171.346 28.053C171.026 29.386 172.013 30.466 173.333 30.466C175.706 30.466 177.52 27.973 177.52 24.373C177.52 21.173 175.227 18.96 171.947 18.96C171.871 18.956 171.783 18.954 171.694 18.954C168.505 18.954 165.921 21.539 165.921 24.727C165.921 24.729 165.921 24.731 165.921 24.733C165.921 25.88 166.361 27.106 166.908 27.773C167.015 27.906 167.028 28.026 166.988 28.16L166.615 29.667C166.562 29.907 166.415 29.974 166.175 29.854C164.495 29.067 163.455 26.654 163.455 24.681C163.455 20.481 166.522 16.628 172.282 16.628C176.895 16.628 180.509 19.908 180.509 24.321C180.509 28.921 177.602 32.614 173.576 32.614C172.243 32.614 170.963 31.907 170.536 31.081L169.696 34.241C169.265 35.578 168.704 36.739 168.008 37.804L168.042 37.748C169.212 38.12 170.558 38.335 171.953 38.335C179.317 38.335 185.286 32.365 185.286 25.002C185.286 17.655 179.344 11.696 172.004 11.669H172.001L172 11.667Z" fill="black"/>
</svg>
